<?xml version="1.0" standalone="no"?>
<!DOCTYPE svg PUBLIC "-//W3C//DTD SVG 20010904//EN"
 "http://www.w3.org/TR/2001/REC-SVG-20010904/DTD/svg10.dtd">
<svg version="1.0" xmlns="http://www.w3.org/2000/svg"
 width="545.000000pt" height="545.000000pt" viewBox="0 0 545.000000 545.000000"
 preserveAspectRatio="xMidYMid meet">
<metadata>
Created by potrace 1.16, written by Peter Selinger 2001-2019
</metadata>
<g transform="translate(0.000000,545.000000) scale(0.100000,-0.100000)"
fill="#000000" stroke="none">
<path d="M2482 5350 c-120 -10 -286 -48 -326 -75 -37 -24 -66 -102 -90 -240
-18 -103 -21 -309 -5 -405 64 -400 357 -708 754 -792 218 -46 606 -5 680 71
33 35 69 176 84 328 13 127 5 165 -42 196 -38 25 -72 21 -108 -11 -30 -26 -32
-34 -40 -128 -5 -54 -12 -106 -15 -113 -3 -10 -80 60 -234 214 l-230 230 0
237 c0 131 3 238 8 238 18 0 149 -74 199 -113 74 -57 163 -177 202 -273 52
-127 113 -165 179 -109 45 37 47 64 12 154 -83 215 -276 414 -495 509 -86 37
-204 69 -287 77 -126 11 -155 12 -246 5z m201 -196 l37 -7 0 -166 0 -166 -160
160 c-87 87 -157 161 -154 164 15 15 212 25 277 15z m-260 -472 c-91 -1 -169
0 -172 4 -8 8 -6 253 2 287 8 28 10 25 172 -130 l164 -158 -166 -3z m589 -419
c212 -212 227 -228 206 -237 -13 -6 -90 -10 -173 -9 -180 1 -261 19 -405 89
-126 62 -236 169 -298 291 -23 44 -42 84 -42 87 0 3 109 6 242 6 l242 0 228
-227z"/>
<path d="M1015 3645 c-24 -23 -25 -29 -25 -163 l0 -139 -76 -13 c-361 -58
-649 -315 -761 -677 -25 -82 -27 -101 -27 -268 0 -168 2 -186 28 -270 107
-351 396 -608 753 -670 61 -11 160 -15 347 -15 l262 0 44 -46 c25 -25 88 -78
140 -118 333 -256 693 -377 1120 -377 496 0 945 187 1292 538 283 285 450 619
515 1029 15 93 17 188 18 636 l0 526 -24 26 -24 26 -1779 0 -1779 0 -24 -25z
m555 -488 c30 -8 96 -30 147 -51 158 -63 230 -78 388 -78 162 -1 227 12 378
73 135 54 204 69 328 69 137 0 181 -9 336 -69 158 -61 225 -74 378 -74 155 0
222 14 375 73 119 47 194 69 233 70 16 0 17 -19 17 -252 0 -362 -19 -495 -100
-701 -67 -172 -142 -281 -304 -442 -158 -156 -248 -220 -413 -287 -372 -153
-771 -138 -1127 45 -340 174 -585 484 -682 865 -30 120 -44 292 -44 558 0 243
-8 224 90 201z m-556 -762 c21 -116 72 -290 115 -390 l30 -70 -61 -3 c-208
-10 -403 129 -463 331 -21 71 -19 191 4 259 28 81 45 110 102 172 56 62 116
101 194 128 l50 17 6 -172 c3 -95 14 -217 23 -272z"/>
<path d="M3288 2813 c-55 -9 -75 -74 -35 -110 17 -16 41 -22 106 -27 47 -3 89
-10 95 -16 7 -7 5 -30 -7 -74 -9 -35 -17 -74 -17 -85 0 -31 -38 -165 -70 -246
-19 -49 -30 -98 -35 -163 l-7 -92 30 -30 c39 -39 75 -39 113 -1 29 30 32 41
29 120 -1 25 10 80 24 125 33 105 58 219 58 265 -1 20 3 52 8 71 4 19 11 48
14 64 l7 28 73 -7 c58 -5 81 -3 105 9 57 30 68 90 25 133 -21 21 -32 25 -65
20 -35 -5 -119 -1 -359 16 -36 3 -77 3 -92 0z"/>
<path d="M1817 2787 c-28 -20 -59 -194 -55 -302 3 -85 6 -94 48 -168 52 -91
161 -214 207 -233 117 -49 256 25 326 174 l32 67 3 202 4 202 -26 26 c-31 31
-83 34 -114 5 -26 -24 -24 -12 -26 -210 -1 -139 -4 -160 -24 -205 -28 -61 -69
-105 -97 -105 -26 0 -122 97 -164 166 -27 45 -31 60 -31 127 0 42 5 110 11
152 10 68 10 78 -6 95 -21 23 -63 26 -88 7z"/>
<path d="M2951 2602 c-65 -33 -76 -58 -76 -189 0 -109 -1 -118 -23 -140 -13
-14 -21 -30 -18 -38 3 -8 9 -21 12 -29 3 -9 -4 -15 -25 -18 -28 -4 -31 -2 -31
22 0 15 -10 42 -23 61 -19 28 -30 34 -58 34 -18 0 -40 4 -47 9 -33 21 -118
-30 -145 -87 -27 -57 -4 -105 68 -138 63 -29 153 -22 177 14 3 6 20 -6 38 -27
21 -24 41 -36 58 -36 40 0 87 42 101 92 17 58 27 68 67 68 43 0 69 35 55 72
-10 26 -29 38 -61 38 -22 0 -28 24 -32 124 -3 68 -2 70 27 86 36 20 47 67 19
87 -24 17 -42 16 -83 -5z"/>
<path d="M415 745 c-56 -55 -16 -145 63 -145 l39 0 27 -99 c32 -113 73 -183
134 -225 85 -59 -56 -55 2143 -56 l2026 0 61 30 c100 50 141 110 183 263 l24
87 41 0 c29 0 46 6 62 23 31 33 30 90 -3 122 l-24 25 -2376 0 -2376 0 -24 -25z"/>
</g>
</svg>
